#!OML:ASF E:\Style4\Style4.ASF
:FULLY-SPECIFIED
:DEGREES
1631
root 0.454747 16.4808 0.41002 1.57767 10.2735 4.05065
lowerback 10.0189 3.21503 -2.25575
upperback 3.28862 4.02977 -0.789092
thorax -2.28212 2.00966 -0.02947
lowerneck -4.71943 -4.06015 -5.64749
upperneck 26.6931 -5.72582 3.97036
head 9.44011 -2.75534 1.80778
rclavicle 3.26504e-014 -8.74653e-015
rhumerus -18.5585 44.4315 -54.8728
rradius 134.43
rwrist -77.4805
rhand 57.4725 -5.39224
rfingers 7.12502
rthumb 73.8649 18.4451
lclavicle 3.26504e-014 -8.74653e-015
lhumerus -4.25508 -45.0745 47.8005
lradius 137.22
lwrist 77.8156
lhand 36.4368 50.4926
lfingers 7.12502
lthumb 59.3817 64.906
rfemur -22.7169 -12.9846 12.83
rtibia 60.1546
rfoot -31.5791 -22.2707
rtoes -16.8022
lfemur -24.9377 -1.02794 -25.7224
ltibia 57.0826
lfoot -31.424 10.7567
ltoes -17.2743
1632
root 0.454533 16.4782 0.408296 1.63738 10.2673 4.10101
lowerback 10.1 3.20339 -2.29597
upperback 3.30823 4.00748 -0.809025
thorax -2.30703 1.99856 -0.0290231
lowerneck -4.36929 -4.10096 -5.77428
upperneck 26.4169 -5.8128 4.12773
head 9.28955 -2.79861 1.88123
rclavicle 6.63941e-014 -2.46493e-014
rhumerus -18.5485 44.2313 -54.871
rradius 134.397
rwrist -77.3972
rhand 57.5776 -5.34405
rfingers 7.12502
rthumb 73.9026 18.8328
lclavicle 6.63941e-014 -2.46493e-014
lhumerus -4.4689 -44.7969 47.962
lradius 137.196
lwrist 77.8086
lhand 36.6081 50.5444
lfingers 7.12502
lthumb 59.529 64.8098
rfemur -22.8439 -12.981 12.7899
rtibia 60.2439
rfoot -31.3731 -22.5564
rtoes -17.6635
lfemur -25.0214 -1.01768 -25.7812
ltibia 57.145
lfoot -31.4368 10.7818
ltoes -17.3526
1633
root 0.453881 16.4743 0.403523 1.68784 10.2682 4.04707
lowerback 10.2477 3.18364 -2.25589
upperback 3.30275 3.98041 -0.797639
thorax -2.39134 1.98536 -0.045121
lowerneck -3.91456 -4.12798 -5.8405
upperneck 26.0991 -5.87761 4.22777
head 9.10084 -2.83324 1.92883
rclavicle 1.70955e-014 -1.39149e-014
rhumerus -18.5033 43.9874 -54.8283
rradius 134.365
rwrist -77.3843
rhand 57.6284 -5.22982
rfingers 7.12502
rthumb 73.9206 19.1119
lclavicle 1.70955e-014 -1.39149e-014
lhumerus -4.65913 -44.4228 48.1128
lradius 137.198
lwrist 77.8494
lhand 36.6046 50.6523
lfingers 7.12502
lthumb 59.526 64.9208
rfemur -22.9828 -12.9373 12.8789
rtibia 60.3387
rfoot -31.2382 -22.7496
rtoes -18.1502
lfemur -25.1685 -0.988612 -25.7177
ltibia 57.2389
lfoot -31.4159 10.7282
ltoes -17.3447
1634
root 0.453511 16.4711 0.397931 1.72854 10.2665 3.93998
lowerback 10.3978 3.15564 -2.19176
upperback 3.31474 3.94648 -0.744976
thorax -2.46013 1.96846 -0.0305421
lowerneck -3.75146 -4.09329 -5.73056
upperneck 25.952 -5.81581 4.10348
head 9.00774 -2.80893 1.87623
rclavicle -5.1684e-014 2.10712e-014
rhumerus -18.3297 43.72 -54.6689
rradius 134.33
rwrist -77.2809
rhand 57.6239 -5.03045
rfingers 7.12502
rthumb 73.919 19.2964
lclavicle -5.1684e-014 2.10712e-014
lhumerus -4.71629 -43.8873 48.2623
lradius 137.117
lwrist 77.8634
lhand 36.4164 50.5386
lfingers 7.12502
lthumb 59.3641 64.9696
rfemur -23.1209 -12.8924 13.0222
rtibia 60.4392
rfoot -31.2832 -22.5819
rtoes -17.6369
lfemur -25.3321 -0.964532 -25.5984
ltibia 57.3534
lfoot -31.3819 10.7303
ltoes -17.5819
1635
root 0.454272 16.4681 0.393186 1.81119 10.2609 3.88624
lowerback 10.4846 3.13837 -2.12459
upperback 3.34735 3.92863 -0.731546
thorax -2.47003 1.9594 -0.0556031
lowerneck -3.59216 -4.05157 -5.61165
upperneck 25.6446 -5.75576 4.03963
head 8.86108 -2.77974 1.8421
rclavicle -6.92765e-014 1.23246e-014
rhumerus -18.0386 43.2872 -54.4338
rradius 134.288
rwrist -77.206
rhand 57.585 -5.05732
rfingers 7.12502
rthumb 73.9052 19.1434
lclavicle -6.92765e-014 1.23246e-014
lhumerus -4.52931 -43.2885 48.3042
lradius 136.989
lwrist 77.6879
lhand 36.2633 50.38
lfingers 7.12502
lthumb 59.2322 64.9419
rfemur -23.3119 -12.8828 13.1071
rtibia 60.5525
rfoot -31.2768 -22.456
rtoes -17.3322
lfemur -25.5205 -0.95156 -25.5387
ltibia 57.4637
lfoot -31.3868 10.6869
ltoes -17.4928
1636
root 0.454327 16.464 0.390391 1.9467 10.2461 3.93767
lowerback 10.5074 3.10272 -2.19696
upperback 3.40554 3.87417 -0.735928
thorax -2.42548 1.93183 -0.0121287
lowerneck -3.30224 -3.98733 -5.58268
upperneck 25.2012 -5.6735 4.05156
head 8.64795 -2.74398 1.85331
rclavicle 1.25234e-014 -3.97569e-016
rhumerus -17.5053 42.6943 -54.0606
rradius 134.257
rwrist -77.3068
rhand 57.6192 -5.39567
rfingers 7.12502
rthumb 73.9173 18.916
lclavicle 1.25234e-014 -3.97569e-016
lhumerus -4.40939 -42.4684 48.3906
lradius 136.949
lwrist 77.4997
lhand 36.0148 50.3085
lfingers 7.12502
lthumb 59.0176 65.0803
rfemur -23.5485 -12.8845 13.08
rtibia 60.6791
rfoot -31.2446 -22.5869
rtoes -17.6214
lfemur -25.7334 -0.959636 -25.5993
ltibia 57.5702
lfoot -31.3994 10.8869
ltoes -17.9379
1637
root 0.4553 16.4586 0.388259 2.05134 10.2165 3.98798
lowerback 10.5534 3.05925 -2.31875
upperback 3.46784 3.80514 -0.687716
thorax -2.39565 1.89671 0.113796
lowerneck -3.17775 -3.84742 -5.48914
upperneck 24.8946 -5.45627 3.91691
head 8.50055 -2.64936 1.81276
rclavicle 5.15846e-014 -1.86858e-014
rhumerus -16.8587 42.0257 -53.5903
rradius 134.207
rwrist -77.4228
rhand 57.703 -5.57121
rfingers 7.12502
rthumb 73.9468 19.0131
lclavicle 5.15846e-014 -1.86858e-014
lhumerus -4.43802 -41.287 48.6342
lradius 136.982
lwrist 77.6648
lhand 35.8496 50.4545
lfingers 7.12502
lthumb 58.8748 65.3641
rfemur -23.7425 -12.8554 13.0348
rtibia 60.8148
rfoot -31.3209 -22.6005
rtoes -17.6838
lfemur -25.895 -0.934902 -25.6603
ltibia 57.6697
lfoot -31.4681 10.9795
ltoes -18.2724
